<?xml version="1.0" standalone="no"?>
<!DOCTYPE svg PUBLIC "-//W3C//DTD SVG 20010904//EN"
 "http://www.w3.org/TR/2001/REC-SVG-20010904/DTD/svg10.dtd">
<svg version="1.0" xmlns="http://www.w3.org/2000/svg"
 width="300.000000pt" height="150.000000pt" viewBox="0 0 300.000000 150.000000"
 preserveAspectRatio="xMidYMid meet">
<metadata>
Created by potrace 1.10, written by Peter Selinger 2001-2011
</metadata>
<g transform="translate(0.000000,150.000000) scale(0.100000,-0.100000)"
fill="#000000" stroke="none">
<path d="M1586 1383 c-3 -10 -16 -29 -29 -43 -12 -14 -44 -53 -71 -87 -42 -54
-54 -63 -81 -63 -28 0 -48 -16 -156 -129 l-123 -129 -59 51 c-155 136 -156
137 -165 137 -5 0 -27 -21 -49 -47 -22 -27 -74 -83 -115 -125 l-74 -78 -65 0
-66 0 -119 -127 c-66 -69 -125 -132 -132 -139 -6 -7 -12 -16 -12 -19 0 -4 -23
-32 -50 -62 -28 -30 -48 -59 -45 -63 6 -9 135 114 135 129 0 4 26 32 58 61 31
29 85 79 118 111 l61 58 74 2 73 2 105 109 c57 59 108 108 112 108 3 0 25 -19
49 -42 l41 -42 -25 -51 c-19 -37 -26 -66 -26 -108 0 -32 -5 -67 -10 -78 -23
-42 3 -35 53 14 47 47 216 203 271 250 35 31 199 180 230 210 l29 28 27 -30
c15 -16 36 -52 46 -80 l18 -50 -48 -42 c-26 -23 -57 -63 -68 -88 -12 -25 -32
-63 -45 -84 -14 -21 -23 -42 -21 -47 2 -5 30 8 63 29 33 21 68 40 77 44 10 3
50 -12 100 -37 46 -24 101 -53 123 -64 22 -11 84 -41 137 -66 l97 -46 80 41
c61 31 85 38 94 30 24 -19 209 -110 238 -116 17 -4 29 -13 30 -23 0 -11 38
-35 112 -71 62 -30 128 -65 147 -76 38 -23 70 -37 70 -30 0 9 -55 55 -67 55
-6 0 -13 3 -15 8 -1 4 -23 23 -48 42 -54 42 -75 61 -75 70 0 4 -16 20 -35 36
-19 16 -36 32 -38 37 -2 4 -10 7 -17 7 -7 0 -15 4 -17 8 -1 4 -23 23 -48 42
-25 19 -52 42 -60 50 -8 9 -35 31 -60 50 -25 19 -47 37 -50 40 -3 3 -20 18
-37 34 l-32 29 -28 -33 c-15 -19 -34 -41 -41 -49 -11 -14 -14 -13 -33 9 -12
14 -47 52 -78 86 -31 33 -72 78 -91 100 -20 21 -83 91 -141 154 -58 63 -122
133 -142 155 -20 22 -37 43 -37 48 0 14 -19 7 -24 -10z m95 -135 c231 -261
411 -448 431 -448 8 0 32 11 52 25 20 14 41 25 45 25 8 0 191 -146 216 -172
17 -18 -34 2 -129 48 -49 24 -99 44 -112 44 -13 0 -55 -14 -92 -31 l-69 -30
-119 55 c-65 31 -126 61 -134 66 -50 34 -169 83 -197 82 -18 -1 -33 3 -33 9 0
5 20 31 44 57 25 27 49 59 54 72 13 36 -12 109 -53 157 -19 23 -35 45 -35 51
0 16 41 62 54 62 8 0 42 -32 77 -72z m-606 -324 c14 -9 25 -20 25 -25 0 -12
-80 -84 -94 -84 -13 0 -10 27 10 83 17 47 24 49 59 26z"/>
<path d="M1092 448 c-7 -7 -12 -22 -12 -35 0 -18 -6 -23 -25 -23 -16 0 -25 -6
-25 -15 0 -8 9 -15 20 -15 11 0 20 -4 20 -9 0 -20 -23 -117 -32 -137 -8 -16
-6 -28 7 -48 23 -34 72 -36 84 -4 10 26 -3 36 -23 19 -7 -6 -16 -8 -19 -4 -10
10 -8 78 2 89 5 5 11 27 13 49 3 35 6 40 28 42 14 0 31 1 38 2 6 1 12 8 12 16
0 10 -10 15 -30 15 -30 0 -31 1 -24 35 7 37 -9 48 -34 23z"/>
<path d="M168 372 c-40 -24 -59 -64 -59 -127 -1 -73 25 -105 83 -105 43 0 73
22 64 45 -4 12 -9 12 -34 -2 -28 -16 -31 -16 -56 0 -22 15 -26 25 -26 62 0 36
6 50 35 80 35 38 49 40 98 20 14 -6 17 -2 17 19 0 24 -3 26 -47 25 -27 0 -60
-8 -75 -17z"/>
<path d="M395 378 c-39 -21 -75 -72 -77 -108 -3 -62 2 -94 19 -112 22 -25 75
-23 93 2 19 26 33 26 25 0 -5 -16 -2 -20 18 -20 22 0 25 5 30 53 10 81 17 120
29 144 19 40 4 53 -59 53 -32 0 -67 -6 -78 -12z m95 -52 c0 -19 -4 -38 -10
-41 -5 -3 -10 -16 -10 -28 -1 -26 -26 -59 -60 -77 -21 -11 -26 -10 -42 10 -21
26 -22 44 -6 91 18 51 52 78 101 79 24 0 27 -3 27 -34z"/>
<path d="M600 348 c-1 -24 -5 -63 -11 -88 -10 -46 -18 -83 -38 -179 -6 -30 -9
-56 -7 -59 3 -2 14 -1 25 3 15 5 21 15 22 38 1 18 4 43 8 57 6 22 12 24 45 22
75 -7 138 53 151 144 14 90 -65 137 -129 77 l-29 -27 7 27 c6 24 4 27 -19 27
-23 0 -25 -4 -25 -42z m138 0 c18 -18 15 -96 -5 -129 -19 -31 -71 -54 -102
-44 -50 15 27 185 84 185 6 0 16 -5 23 -12z"/>
<path d="M878 366 c-45 -38 -36 -67 40 -128 29 -23 28 -42 -4 -58 -20 -11 -29
-12 -44 -2 -38 24 -58 14 -44 -22 11 -28 94 -21 127 9 43 41 35 66 -41 127
-45 37 -7 81 49 57 35 -14 43 -9 34 20 -10 31 -80 29 -117 -3z"/>
<path d="M1247 369 c-33 -25 -67 -88 -67 -124 0 -54 43 -105 88 -105 77 0 133
64 134 153 0 45 -4 54 -29 74 -35 29 -88 29 -126 2z m96 -23 c22 -17 23 -88 0
-127 -23 -38 -64 -55 -92 -38 -44 28 -34 120 17 158 32 24 50 25 75 7z"/>
<path d="M1477 343 c-3 -27 -12 -82 -21 -123 -9 -41 -16 -76 -16 -77 0 -2 8
-3 18 -3 15 0 22 13 32 58 21 96 25 105 64 136 64 53 86 10 58 -114 -6 -25
-14 -53 -17 -62 -6 -14 -2 -18 17 -18 24 0 26 5 43 100 16 93 16 102 1 125
-23 35 -71 34 -108 -2 -26 -25 -55 -26 -30 -1 18 18 14 28 -12 28 -21 0 -25
-5 -29 -47z"/>
<path d="M1790 373 c-42 -29 -51 -41 -64 -91 -22 -86 13 -141 90 -142 28 0 47
7 64 22 28 26 14 34 -34 18 -33 -11 -86 2 -86 21 0 4 -3 14 -6 23 -5 13 1 16
32 16 60 0 121 27 134 61 10 24 9 32 -10 59 -17 24 -29 30 -58 30 -21 0 -49
-8 -62 -17z m89 -32 c13 -24 -3 -45 -48 -60 -75 -25 -93 -4 -40 48 35 35 73
40 88 12z"/>
<path d="M2123 367 c-98 -66 -78 -227 27 -227 24 0 43 7 55 20 24 26 13 36
-24 21 -35 -15 -66 -3 -76 29 -11 35 5 97 32 124 28 29 53 32 83 14 27 -17 50
3 30 27 -19 22 -88 18 -127 -8z"/>
<path d="M2340 376 c-36 -20 -70 -89 -70 -142 0 -24 5 -44 10 -44 6 0 10 -5
10 -11 0 -34 79 -51 123 -27 45 26 77 85 77 143 0 79 -77 120 -150 81z m96
-41 c25 -38 11 -107 -27 -140 -17 -14 -39 -25 -49 -25 -24 0 -50 37 -50 72 0
90 86 154 126 93z"/>
<path d="M2567 353 c-6 -40 -31 -153 -42 -190 -6 -20 -4 -23 19 -23 24 0 26 4
26 39 0 22 5 43 10 46 6 3 10 19 10 36 0 33 59 99 89 99 19 0 44 -43 33 -55
-4 -4 -12 -32 -19 -63 -6 -31 -14 -67 -18 -79 -6 -20 -4 -23 19 -23 21 0 26 5
26 26 0 14 7 51 16 82 24 82 100 144 118 96 7 -17 -1 -85 -14 -124 -22 -66
-22 -80 3 -80 23 0 27 11 54 178 7 43 -18 72 -64 72 -18 0 -33 -4 -33 -10 0
-5 -7 -10 -15 -10 -8 0 -15 -7 -15 -15 0 -8 -7 -15 -15 -15 -8 0 -15 5 -15 11
0 19 -28 39 -55 39 -14 0 -37 -11 -51 -25 -14 -14 -27 -25 -31 -25 -3 0 -2 11
1 25 5 20 3 25 -13 25 -14 0 -20 -9 -24 -37z"/>
<path d="M1940 165 c0 -20 5 -25 25 -25 20 0 25 5 25 25 0 20 -5 25 -25 25
-20 0 -25 -5 -25 -25z"/>
</g>
</svg>
